<?xml version="1.0" encoding="UTF-8"?>
<svg id="Capa_2" data-name="Capa 2" xmlns="http://www.w3.org/2000/svg" viewBox="0 0 1080 1080">
  <defs>
    <style>
      .cls-1 {
        fill: #7b8bbb;
      }

      .cls-2 {
        fill: #91a6ce;
      }

      .cls-3 {
        fill: #5c74a5;
      }

      .cls-4 {
        fill: #3f578f;
      }

      .cls-5 {
        fill: #afc4e3;
      }

      .cls-6 {
        fill: #233040;
      }
    </style>
  </defs>
  <g id="Capa_1-2" data-name="Capa 1">
    <g>
      <rect class="cls-6" width="1080" height="1080"/>
      <g>
        <path class="cls-4" d="m540,234.15c-168.91,0-305.85,136.93-305.85,305.85s136.93,305.85,305.85,305.85,305.85-136.93,305.85-305.85-136.93-305.85-305.85-305.85Zm0,590.42c-156.96,0-284.2-127.24-284.2-284.2s127.24-284.2,284.2-284.2,284.2,127.24,284.2,284.2-127.24,284.2-284.2,284.2Z"/>
        <path class="cls-3" d="m540,261.04c-153.51,0-277.95,124.9-277.95,278.96s124.44,278.96,277.95,278.96,277.95-124.9,277.95-278.96-124.44-278.96-277.95-278.96Zm0,535.51c-141.17,0-255.62-114.86-255.62-256.55s114.44-256.55,255.62-256.55,255.62,114.86,255.62,256.55-114.44,256.55-255.62,256.55Z"/>
        <path class="cls-1" d="m540,288.15c-139.09,0-251.85,112.76-251.85,251.85s112.76,251.85,251.85,251.85,251.85-112.76,251.85-251.85-112.76-251.85-251.85-251.85Zm0,483.1c-127.72,0-231.25-103.53-231.25-231.25s103.53-231.25,231.25-231.25,231.25,103.53,231.25,231.25-103.53,231.25-231.25,231.25Z"/>
        <path class="cls-2" d="m540,315.18c-124.17,0-224.82,100.66-224.82,224.82s100.66,224.82,224.82,224.82,224.82-100.66,224.82-224.82-100.66-224.82-224.82-224.82Zm0,427.41c-111.89,0-202.59-90.7-202.59-202.59s90.7-202.59,202.59-202.59,202.59,90.7,202.59,202.59-90.7,202.59-202.59,202.59Z"/>
        <path class="cls-5" d="m540,341.65c-109.55,0-198.35,88.81-198.35,198.35s88.81,198.35,198.35,198.35,198.35-88.81,198.35-198.35-88.81-198.35-198.35-198.35Zm0,375.06c-97.59,0-176.71-79.11-176.71-176.71s79.11-176.71,176.71-176.71,176.71,79.11,176.71,176.71-79.11,176.71-176.71,176.71Z"/>
      </g>
    </g>
  </g>
</svg>